<?xml version="1.0" encoding="iso-8859-1"?>
<!-- Uploaded to: SVG Repo, www.svgrepo.com, Generator: SVG Repo Mixer Tools -->
<svg fill="#000000" height="800px" width="800px" version="1.1" id="Layer_1" xmlns="http://www.w3.org/2000/svg" xmlns:xlink="http://www.w3.org/1999/xlink" 
	 viewBox="0 0 512 512" xml:space="preserve">
<g>
	<g>
		<path d="M256,0C114.843,0,0,114.843,0,256c0,141.157,114.843,256,256,256s256-114.843,256-256C512,114.843,397.157,0,256,0z
			 M256,18.963c107.215,0,198.014,71.557,227.195,169.414l-20.63,45.368c-6.12-37.204-26.843-66.713-28.185-68.588
			c-1.694-2.375-4.38-3.833-7.296-3.963c-2.981-0.074-5.713,1.088-7.611,3.301l-47.5,55.412
			c-13.176-16.579-40.907-31.792-54.843-38.759c-4.278-2.143-9.472-0.754-12.13,3.222l-45.518,68.282
			c-12.435-39.694-25.648-57.171-41.797-56.537c-24.889,1.148-41.185,52.37-50.185,92.801l-25.954-64.884
			c-1.13-2.815-3.537-4.926-6.481-5.667c-2.935-0.75-6.074-0.037-8.398,1.907c-29.306,24.421-35.945,61.542-34.722,94.125
			L28.856,188.212C58.088,90.439,148.845,18.963,256,18.963z M256,493.037C125.296,493.037,18.963,386.704,18.963,256
			c0-13.207,1.104-26.16,3.19-38.786L105.296,383.5c1.657,3.305,4.991,5.241,8.481,5.241c1.25,0,2.519-0.25,3.741-0.773
			c4.611-1.982,6.88-7.218,5.176-11.945c-0.333-0.912-30.268-85.449,6.62-131.5l32.546,81.371c1.574,3.935,5.528,6.352,9.824,5.903
			c4.231-0.458,7.639-3.671,8.333-7.866c12.815-76.87,32.491-108.593,38.546-108.87c0.167,0,12.213,1.301,28.269,62.315
			c0.945,3.611,3.926,6.324,7.602,6.94c3.722,0.611,7.38-0.986,9.454-4.093l52.167-78.245c23.621,12.847,44.241,28.954,44.241,35.06
			c0,3.968,2.472,7.514,6.194,8.894c3.713,1.366,7.907,0.287,10.482-2.722l48.435-56.5c10.639,19.046,29.231,60.662,14.055,97.87
			L437,290.005c-2.139,4.704-0.12,10.255,4.546,12.477c4.648,2.222,10.259,0.306,12.565-4.315c1.028-2.065,1.972-4.139,2.833-6.217
			l33.188-73.019c1.905,12.082,2.905,24.461,2.905,37.069C493.037,386.704,386.704,493.037,256,493.037z"/>
	</g>
</g>
<g>
	<g>
		<path d="M369.778,388.696h-94.815c-5.241,0-9.481,4.245-9.481,9.481s4.241,9.482,9.481,9.482h94.815
			c5.241,0,9.482-4.245,9.482-9.482S375.018,388.696,369.778,388.696z"/>
	</g>
</g>
</svg>