<?xml version="1.0" encoding="iso-8859-1"?>
<!-- Uploaded to: SVG Repo, www.svgrepo.com, Generator: SVG Repo Mixer Tools -->
<svg fill="#000000" version="1.1" id="Layer_1" xmlns="http://www.w3.org/2000/svg" xmlns:xlink="http://www.w3.org/1999/xlink" 
	 viewBox="0 0 512 512" xml:space="preserve">
<g>
	<g>
		<path d="M256,256c-73.194,0-132.741,59.523-132.741,132.718c0,5.241,4.245,9.458,9.481,9.458h246.519
			c5.236,0,9.481-4.218,9.481-9.458C388.741,315.523,329.194,256,256,256z M142.616,379.213
			c4.833-59.259,53.843-104.296,113.384-104.296c59.542,0,108.551,45.037,113.384,104.296H142.616z"/>
	</g>
</g>
<g>
	<g>
		
			<rect x="180.157" y="36.379" transform="matrix(0.3162 -0.9487 0.9487 0.3162 57.7215 231.7726)" width="18.963" height="78.934"/>
	</g>
</g>
<g>
	<g>
		
			<rect x="292.111" y="66.377" transform="matrix(0.9285 -0.3714 0.3714 0.9285 -4.7755 126.9161)" width="70.025" height="18.959"/>
	</g>
</g>
<g>
	<g>
		<path d="M473.904,121.488c-0.341-1.808-1.208-3.535-2.608-4.933c-0.353-0.354-0.743-0.641-1.133-0.926
			c-9.534-14.482-20.602-28.106-33.145-40.648c-99.815-99.815-262.222-99.815-362.037,0C26.63,123.333,0,187.62,0,256
			c0,68.38,26.63,132.667,74.981,181.019C124.889,486.926,190.444,511.88,256,511.88c65.555,0,131.111-24.954,181.019-74.861
			C485.37,388.667,512,324.38,512,256C512,207.732,498.715,161.511,473.904,121.488z M88.389,88.389
			C134.602,42.185,195.301,19.074,256,19.074c60.699,0,121.398,23.111,167.611,69.315c10.593,10.592,20.044,22.019,28.324,34.118
			l-15.787,15.79v-24.519c0-5.241-4.245-9.528-9.481-9.528H312.889c-5.236,0-9.482,4.287-9.482,9.528v41.692
			c-11.083-8.194-26.118-13.248-42.667-13.248c-16.548,0-31.583,5.053-42.667,13.248v-41.692c0-5.241-4.245-9.528-9.482-9.528
			H94.815c-5.236,0-9.482,4.287-9.482,9.528v24.519l-21.346-21.347C71.296,106.898,79.433,97.342,88.389,88.389z M417.185,123.213
			v75.852H322.37v-75.852H417.185z M199.111,123.213v75.852h-94.815v-75.852H199.111z M423.611,423.611
			c-92.426,92.407-242.796,92.407-335.222,0C43.62,378.843,18.963,319.315,18.963,256c0-44.055,11.95-86.273,34.295-122.965
			l32.075,32.076v43.481c0,5.241,4.245,9.435,9.482,9.435h113.778c5.236,0,9.482-4.194,9.482-9.435v-18.963
			c0-15.417,19.537-28.444,42.667-28.444c23.13,0,42.667,13.028,42.667,28.444v18.963c0,5.241,4.245,9.435,9.482,9.435h113.778
			c5.236,0,9.481-4.194,9.481-9.435v-43.481l26.115-26.116c20.081,35.273,30.774,75.315,30.774,117.005
			C493.037,319.315,468.38,378.843,423.611,423.611z"/>
	</g>
</g>
<g>
	<g>
		<path d="M148.926,135.518c-3.704-3.704-9.704-3.704-13.407,0l-18.963,18.963c-3.704,3.704-3.704,9.704,0,13.408
			c1.852,1.852,4.278,2.778,6.704,2.778c2.426,0,4.852-0.926,6.704-2.778l18.963-18.963
			C152.63,145.222,152.63,139.222,148.926,135.518z"/>
	</g>
</g>
<g>
	<g>
		<path d="M367,135.518c-3.704-3.704-9.704-3.704-13.407,0l-18.963,18.963c-3.704,3.704-3.704,9.704,0,13.408
			c1.852,1.852,4.278,2.778,6.704,2.778c2.426,0,4.852-0.926,6.704-2.778L367,148.926C370.704,145.222,370.704,139.222,367,135.518z
			"/>
	</g>
</g>
<g>
	<g>
		<path d="M186.852,145c-3.704-3.704-9.704-3.704-13.407,0L145,173.444c-3.704,3.704-3.704,9.704,0,13.408
			c1.852,1.852,4.278,2.778,6.704,2.778s4.852-0.926,6.704-2.778l28.444-28.444C190.555,154.704,190.555,148.704,186.852,145z"/>
	</g>
</g>
<g>
	<g>
		<path d="M404.926,145c-3.704-3.704-9.704-3.704-13.407,0l-28.444,28.444c-3.704,3.704-3.704,9.704,0,13.408
			c1.852,1.852,4.278,2.778,6.704,2.778c2.426,0,4.852-0.926,6.704-2.778l28.444-28.444C408.63,154.704,408.63,148.704,404.926,145z
			"/>
	</g>
</g>
</svg>